<?xml version="1.0" encoding="UTF-8" standalone="no"?>
<svg
   width="24"
   height="20"
   version="1.1"
   id="svg4"
   sodipodi:docname="icon-twitter-red.svg"
   inkscape:version="1.2.2 (732a01da63, 2022-12-09)"
   xmlns:inkscape="http://www.inkscape.org/namespaces/inkscape"
   xmlns:sodipodi="http://sodipodi.sourceforge.net/DTD/sodipodi-0.dtd"
   xmlns="http://www.w3.org/2000/svg"
   xmlns:svg="http://www.w3.org/2000/svg">
  <defs
     id="defs8" />
  <sodipodi:namedview
     id="namedview6"
     pagecolor="#ffffff"
     bordercolor="#000000"
     borderopacity="0.25"
     inkscape:showpageshadow="2"
     inkscape:pageopacity="0.0"
     inkscape:pagecheckerboard="0"
     inkscape:deskcolor="#d1d1d1"
     showgrid="false"
     inkscape:zoom="19.17"
     inkscape:cx="12.050078"
     inkscape:cy="10.015649"
     inkscape:window-width="1920"
     inkscape:window-height="1137"
     inkscape:window-x="-8"
     inkscape:window-y="-8"
     inkscape:window-maximized="1"
     inkscape:current-layer="svg4" />
  <path
     fill="#FFF"
     fill-rule="evenodd"
     d="M24 2.557a9.83 9.83 0 0 1-2.828.775A4.932 4.932 0 0 0 23.337.608a9.864 9.864 0 0 1-3.127 1.195A4.916 4.916 0 0 0 16.616.248c-3.179 0-5.515 2.966-4.797 6.045A13.978 13.978 0 0 1 1.671 1.149a4.93 4.93 0 0 0 1.523 6.574 4.903 4.903 0 0 1-2.229-.616c-.054 2.281 1.581 4.415 3.949 4.89a4.935 4.935 0 0 1-2.224.084 4.928 4.928 0 0 0 4.6 3.419A9.9 9.9 0 0 1 0 17.54a13.94 13.94 0 0 0 7.548 2.212c9.142 0 14.307-7.721 13.995-14.646A10.025 10.025 0 0 0 24 2.557z"
     id="path2"
     style="fill:#ff0000" />
</svg>
