<?xml version="1.0" encoding="UTF-8" standalone="no"?>
<svg
   width="536"
   height="346"
   version="1.1"
   id="svg808"
   sodipodi:docname="illustration-features-tab-3.svg"
   inkscape:version="1.2.2 (732a01da63, 2022-12-09)"
   xmlns:inkscape="http://www.inkscape.org/namespaces/inkscape"
   xmlns:sodipodi="http://sodipodi.sourceforge.net/DTD/sodipodi-0.dtd"
   xmlns:xlink="http://www.w3.org/1999/xlink"
   xmlns="http://www.w3.org/2000/svg"
   xmlns:svg="http://www.w3.org/2000/svg">
  <sodipodi:namedview
     id="namedview810"
     pagecolor="#ffffff"
     bordercolor="#000000"
     borderopacity="0.25"
     inkscape:showpageshadow="2"
     inkscape:pageopacity="0.0"
     inkscape:pagecheckerboard="0"
     inkscape:deskcolor="#d1d1d1"
     showgrid="false"
     inkscape:zoom="0.62105263"
     inkscape:cx="625.55085"
     inkscape:cy="177.11864"
     inkscape:window-width="1018"
     inkscape:window-height="623"
     inkscape:window-x="884"
     inkscape:window-y="260"
     inkscape:window-maximized="0"
     inkscape:current-layer="svg808" />
  <defs
     id="defs673">
    <rect
       id="a"
       width="350"
       height="346"
       rx="8"
       x="0"
       y="0" />
    <path
       id="c"
       d="M 0,0.048 H 349.781 V 296 H 0 Z" />
    <path
       id="e"
       d="M 0,0.048 H 157.825 V 219.892 H 0 Z" />
  </defs>
  <g
     fill="none"
     fill-rule="evenodd"
     id="g806"
     transform="scale(1.2181818,0.91052586)">
    <mask
       id="b"
       fill="#ffffff">
      <use
         xlink:href="#a"
         id="use675" />
    </mask>
    <use
       fill="#e8eaf6"
       fill-rule="nonzero"
       xlink:href="#a"
       id="use678" />
    <g
       mask="url(#b)"
       id="g692">
      <path
         fill="#242a45"
         d="m -3.53,0.197 h 547 v 59 h -547 z"
         id="path680" />
      <g
         transform="translate(22.47,14.197)"
         fill="#ffffff"
         id="g690">
        <circle
           cx="16"
           cy="16"
           r="16"
           opacity="0.245"
           id="circle682" />
        <g
           transform="translate(47,6)"
           id="g688">
          <rect
             width="120"
             height="6"
             opacity="0.75"
             rx="3"
             id="rect684"
             x="0"
             y="0" />
          <rect
             width="64"
             height="6"
             y="14"
             opacity="0.25"
             rx="3"
             id="rect686"
             x="0" />
        </g>
      </g>
    </g>
    <rect
       width="237"
       height="34"
       x="27"
       y="85"
       fill="#ffffff"
       rx="8"
       id="rect694" />
    <rect
       width="237"
       height="34"
       x="27"
       y="133"
       fill="#ffffff"
       rx="8"
       id="rect696" />
    <rect
       width="237"
       height="34"
       x="27"
       y="181"
       fill="#ffffff"
       rx="8"
       id="rect698" />
    <rect
       width="237"
       height="34"
       x="27"
       y="229"
       fill="#ffffff"
       rx="8"
       id="rect700" />
    <rect
       width="237"
       height="34"
       x="27"
       y="277"
       fill="#ffffff"
       rx="8"
       id="rect702" />
    <g
       transform="matrix(-1,0,0,1,440,83)"
       id="g804">
      <mask
         id="d"
         fill="#ffffff">
        <use
           xlink:href="#c"
           id="use704" />
      </mask>
      <path
         fill="#3a499e"
         d="m 348.707,250.34 c -0.67,2.018 -1.715,3.998 -3.174,5.935 -25.202,33.474 -119.376,44.632 -212.224,37.814 -48.476,-3.562 -82.67,-24.526 -104.281,-43.75 A 175.95,175.95 0 0 1 15.668,237.117 C 10.999,231.972 7.355,226.257 4.758,220.222 -2.889,202.444 -1.416,181.906 9.881,165.061 19.458,150.785 32.603,140.237 39.394,128.518 52.326,106.2 -16.043,49.782 28.448,14.138 44.152,1.554 77.608,-1.35 114.11,0.602 c 44.428,2.378 93.365,11.955 120.284,20.045 55.712,16.737 90.58,40.98 98.539,68.256 7.958,27.276 -13.311,39.618 -31.88,65.654 -17.495,24.526 58.553,62.997 47.654,95.783"
         mask="url(#d)"
         id="path707" />
      <path
         fill="#306299"
         d="M 254.549,90.872 237.564,88 235,103.799 256,110 Z"
         id="path709" />
      <path
         fill="#fa9e89"
         d="m 237,89.118 c 0,0 -13.176,-0.348 -27,-6.118 l 6.496,12.254 18.753,5.746 z"
         id="path711" />
      <g
         transform="translate(2,2)"
         id="g718">
        <mask
           id="f"
           fill="#ffffff">
          <use
             xlink:href="#e"
             id="use713" />
        </mask>
        <path
           fill="#ffffff"
           d="M 157.066,52.186 C 148.954,92.345 11.06,153.876 4.43,219.892 -2.688,202.14 -1.317,181.634 9.2,164.814 18.114,150.559 30.35,140.027 36.671,128.325 48.71,106.043 -14.934,49.707 26.481,14.117 41.1,1.552 72.242,-1.348 106.221,0.602 c 10.344,2.364 58.164,15.331 50.845,51.584"
           mask="url(#f)"
           opacity="0.152"
           id="path716" />
      </g>
      <path
         fill="#000000"
         d="m 351.82,243 c 0.985,7.866 -2.34,13.336 -3.64,15.227 C 325.751,290.899 203.686,301.79 121.05,295.135 77.904,291.659 42.545,269.42 21,244.915 Z"
         opacity="0.149"
         id="path720" />
      <path
         fill="#000000"
         d="m 73.627,246.812 c 0,0 -10.077,0.61 -9.922,3.66 0.155,3.05 6.511,9.758 6.511,9.758 L 60.707,256.825 32,255.732 l 3.1,2.669 c 0,0 23.127,1.067 24.16,1.88 1.034,0.813 14.264,10.776 16.537,11.182 2.274,0.407 146.688,0.225 146.688,0.225 0,0 14.858,0.589 17.339,-3.986 2.48,-4.574 11.472,-4.27 13.953,-0.305 2.48,3.965 2.136,18.603 2.136,18.603 0,0 6.793,-1.773 7.166,-1.931 C 286.644,274.106 313,243 313,243 Z"
         opacity="0.128"
         id="path722" />
      <path
         fill="#162f44"
         d="m 43,207.695 14.45,49.163 c 0,0 2.056,2.444 3.55,0.18 L 51.286,207 Z M 23.134,206 16,239.138 19.397,243 29,206.954 Z"
         id="path724" />
      <path
         fill="#f4f2f9"
         d="m 235.493,217.082 6.025,34.2 0.999,5.669 -2.192,0.322 -0.156,0.024 -4.788,0.703 c 0,0 -15.971,-39.344 -17.33,-48.787 C 216.69,199.77 243.196,162 243.196,162 l 28.768,2.448 c 0.761,8.219 -10.744,23.711 -21.027,35.77 -8.101,9.499 -15.444,16.864 -15.444,16.864"
         id="path726" />
      <path
         fill="#e0dfea"
         d="m 235.88,215.535 6.877,39.767 -2.146,0.321 -0.073,0.377 -0.08,-0.352 c -0.875,-3.83 -11.14,-37.737 -11.452,-44.648 -0.333,-7.326 14.027,-30 14.027,-30 L 251,198.714 c -7.93,9.474 -15.12,16.82 -15.12,16.82"
         id="path728" />
      <path
         fill="#6397d9"
         d="M 274,166 245.333,163.613 244,115.886 c 0,0 7,-24.886 14.667,-24.886 4.553,0 8.986,1.804 11.7,6.195 1.853,3.003 2.903,7.22 2.633,12.896 -0.61,12.777 0.73,48.907 0.967,55.022 C 273.987,165.69 274,166 274,166"
         id="path730" />
      <path
         fill="#8bbff7"
         d="M 266.115,162.276 266.653,105.458 260,91.938 267.763,91 l 2.729,3.21 c 1.79,3.003 2.803,7.22 2.542,12.894 -0.589,12.774 0.737,49.782 0.966,55.896 z"
         id="path732" />
      <path
         fill="#306299"
         d="M 266,107 244.983,147 244.437,129.009 244,114.411 261.524,107 Z"
         id="path734" />
      <path
         fill="#ffffff"
         d="M 212.329,270 H 83.67 c -4.789,0 -8.671,-3.908 -8.671,-8.73 V 40.73 c 0,-4.822 3.882,-8.73 8.671,-8.73 h 128.66 c 4.789,0 8.671,3.908 8.671,8.73 v 220.54 c 0,4.822 -3.882,8.73 -8.671,8.73"
         id="path736" />
      <path
         fill="#e4dcf1"
         d="m 213,63.29 v 88.42 c 0,1.818 -1.456,3.29 -3.253,3.29 H 86.253 C 84.456,155 83,153.528 83,151.71 V 63.29 C 83,61.472 84.456,60 86.253,60 h 123.494 c 1.797,0 3.253,1.472 3.253,3.29"
         id="path738" />
      <path
         fill="#8e2b43"
         d="m 148.853,84 -1.552,1.183 -3.301,14.371 0.071,2.367 5.227,0.079 c 0.355,0.005 0.713,-0.065 1.03,-0.25 1.495,-0.878 2.133,-3.325 1.308,-5.493 -0.444,-1.166 -1.581,-3.23 -1.713,-4.142 C 149.609,89.931 148.853,84 148.853,84"
         id="path740" />
      <path
         fill="#4ec9b4"
         d="m 176,158 -54.224,-0.208 -1.795,-0.006 c 0,0 -6.487,-30.649 4.016,-42.461 2.558,-2.874 5.883,-4.993 9.506,-6.37 11.273,-4.297 25.453,-1.455 28.493,7.966 C 166.012,129.372 176,158 176,158"
         id="path742" />
      <path
         fill="#fa9e89"
         d="m 133.84,109.489 c 0,0 2.215,6.026 7.103,7.294 4.888,1.269 10.489,-3.224 10.03,-8.457 0,0 -4.684,-0.687 -5.447,-2.96 -0.928,-2.76 -0.306,-2.854 -0.306,-2.854 0,0 1.833,-3.49 2.444,-6.026 0.611,-2.537 -0.305,-12.37 -4.582,-13.32 -2.705,-0.602 -7.027,0.317 -10.082,4.757 0,0 1.528,8.563 3.666,12.686 2.139,4.123 3.208,6.026 -2.826,8.88"
         id="path744" />
      <path
         fill="#f4f2f9"
         d="M 209.833,33.013 77,219.239 v 42.244 c 0,4.704 3.7,8.517 8.263,8.517 h 120.164 c 5.287,0 9.573,-4.418 9.573,-9.869 V 36.827 c 0,-2.929 -2.33,-3.956 -5.167,-3.814"
         opacity="0.184"
         id="path746" />
      <path
         fill="#4ec9b4"
         d="M 170,139.442 176.982,109 188,110.816 177.316,155 Z"
         id="path748" />
      <path
         fill="#fa9e89"
         d="m 179.2,108.137 0.6,-3.106 c 0,0 -1.8,-1.184 -1.5,-2.959 0.3,-1.775 -0.3,-5.917 -0.3,-5.917 0,0 0.957,-0.647 1.575,0.518 0.44,0.829 1.125,2.737 1.125,2.737 0,0 2.296,-6.166 2.826,-7.79 0.225,-0.691 0.452,-1.767 0.975,-1.603 0.275,0.086 0.175,0.715 0.128,1.33 -0.14,1.844 -0.928,4.784 -0.928,4.784 l 0.4,0.234 1.663,-5.276 c 0.073,-0.256 0.193,-0.644 0.462,-0.665 0.238,-0.02 0.475,0.11 0.475,0.702 0,1.184 -1.275,6.077 -1.275,6.077 l 0.319,0.219 1.935,-4.278 c 0.133,-0.323 0.613,-0.295 0.695,0.044 0.065,0.268 0.046,0.65 -0.173,1.192 -0.6,1.48 -1.2,3.846 -1.2,3.846 l 0.15,0.173 1.05,-2.17 c 0.188,-0.347 0.649,-0.57 0.783,-0.2 0.188,0.518 -1.458,4.97 -1.458,5.267 0,0.296 -1.126,4.326 -2.326,4.622 -1.2,0.296 -1.275,3.082 -1.275,3.082 z"
         id="path750" />
      <path
         fill="#ffdedd"
         d="M 109.649,181 H 87.35 c -1.298,0 -2.351,-1.072 -2.351,-2.394 v -3.212 c 0,-1.322 1.053,-2.394 2.351,-2.394 h 22.298 c 1.298,0 2.351,1.072 2.351,2.394 v 3.212 c 0,1.322 -1.053,2.394 -2.351,2.394 m 32,0 H 119.35 c -1.298,0 -2.351,-1.072 -2.351,-2.394 v -3.212 c 0,-1.322 1.053,-2.394 2.351,-2.394 h 22.298 c 1.298,0 2.351,1.072 2.351,2.394 v 3.212 c 0,1.322 -1.053,2.394 -2.351,2.394 m 34,0 H 153.35 c -1.298,0 -2.351,-1.072 -2.351,-2.394 v -3.212 c 0,-1.322 1.053,-2.394 2.351,-2.394 h 22.297 c 1.299,0 2.352,1.072 2.352,2.394 v 3.212 c 0,1.322 -1.053,2.394 -2.352,2.394 m 32,0 H 185.35 c -1.298,0 -2.351,-1.072 -2.351,-2.394 v -3.212 c 0,-1.322 1.053,-2.394 2.351,-2.394 h 22.298 c 1.298,0 2.351,1.072 2.351,2.394 v 3.212 c 0,1.322 -1.053,2.394 -2.351,2.394"
         id="path752" />
      <path
         fill="#f4f2f9"
         d="M 205.453,200 H 87.547 C 86.14,200 85,198.92 85,197.59 v -3.18 c 0,-1.33 1.14,-2.41 2.547,-2.41 h 117.906 c 1.407,0 2.547,1.08 2.547,2.41 v 3.18 c 0,1.33 -1.14,2.41 -2.547,2.41 M 87.547,216 C 86.14,216 85,214.92 85,213.59 v -3.18 c 0,-1.33 1.14,-2.41 2.547,-2.41 h 117.906 c 1.407,0 2.547,1.08 2.547,2.41 v 3.18 c 0,1.33 -1.14,2.41 -2.547,2.41 z m 117.906,16 H 87.547 C 86.14,232 85,230.92 85,229.59 v -3.18 c 0,-1.33 1.14,-2.41 2.547,-2.41 h 117.906 c 1.407,0 2.547,1.08 2.547,2.41 v 3.18 c 0,1.33 -1.14,2.41 -2.547,2.41 m 0,13 H 87.547 C 86.14,245 85,243.92 85,242.59 v -3.18 c 0,-1.33 1.14,-2.41 2.547,-2.41 h 117.906 c 1.407,0 2.547,1.08 2.547,2.41 v 3.18 c 0,1.33 -1.14,2.41 -2.547,2.41"
         id="path754" />
      <path
         fill="#fc516b"
         d="m 130.778,80.321 c 0,0 6.3,-8.848 18.19,-3.725 11.888,5.122 -1.017,13.504 -1.017,13.504 0,0 -0.254,-3.26 -2.134,-4.191 l 0.153,2.897 -6.656,1.165 -1.067,-2.794 -0.686,3.182 -3.353,1.241 c 0,0 2.743,9.624 4.344,11.021 0,0 0.686,2.25 0.457,2.716 -0.228,0.466 -10.364,3.027 -11.66,0.699 -1.296,-2.328 1.372,-5.588 2.21,-7.761 0.838,-2.173 -1.524,-13.711 1.22,-17.954"
         id="path756" />
      <path
         fill="#e4dcf1"
         d="M 101.648,56 H 84.352 C 83.053,56 82,54.657 82,53 c 0,-1.657 1.053,-3 2.352,-3 h 17.296 c 1.299,0 2.352,1.343 2.352,3 0,1.657 -1.053,3 -2.352,3"
         id="path758" />
      <path
         fill="#44ad99"
         d="m 128,128 c 0,0 2.664,19.286 5.71,27 h 16.06 c 0,0 2.648,-8.138 -10.047,-10.8 C 130.893,142.349 128,128 128,128 m 31.611,-5 c 0,0 3.26,10 2.648,13 -0.61,3 -3.259,5.2 -3.259,7.2 0,2 1.63,9.6 1.63,9.6 L 170,153 c 0,0 -1.556,-0.266 -5.093,-3.05 -5.398,-4.25 -0.764,-13.625 -1.91,-18.95 -0.6,-2.794 -3.386,-8 -3.386,-8 M 170,138.772 c 0,0 0.213,8.383 1.915,7.093 1.702,-1.29 0.638,-13.757 2.127,-18.056 1.49,-4.3 5.958,-18.057 5.958,-18.057 L 176.17,109 Z"
         id="path760" />
      <path
         fill="#fa9e89"
         d="m 195.377,100.475 c 0,0 1.576,0.692 3.5,3.046 0.636,0.78 4.03,2.021 4.833,2.988 11.645,14.02 27.196,24.841 37.163,20.533 C 253.603,121.54 256,116.424 256,116.424 l -8.414,-11.362 c 0,0 -9.663,14.759 -17.434,10.739 -7.772,-4.02 -23.092,-14.557 -23.092,-14.557 l -0.406,-6.464 c 0,0 -0.895,-0.24 -1.324,0.995 -0.43,1.236 -0.45,2.304 -0.45,2.304 l -6.049,-7.024 c 0,0 -1.162,-0.36 -0.808,0.769 0.354,1.13 2.491,4.368 2.491,4.368 0,0 0.22,0.616 -0.243,0.335 -0.54,-0.327 -4.766,-5.092 -4.766,-5.092 0,0 -0.973,-0.064 -0.576,0.866 0.307,0.717 2.865,4.09 3.73,5.354 0.258,0.376 -0.282,0.235 -0.282,0.235 l -3.496,-2.97 c -0.473,-0.319 -0.963,-0.213 -0.87,0.368 0.075,0.46 1.027,1.519 1.593,1.939 1.414,1.046 2.4,2.952 2.4,2.952 l -3.044,-1.1 c 0,0 -0.595,0.528 0.417,1.396 M 267,63.49 263.15,91.81 250.504,94 c 0,0 0.64,-0.668 1.372,-1.56 0.748,-0.907 1.59,-2.05 1.963,-2.966 0.85,-2.104 0.856,-4.066 0.856,-4.066 0,0 -5.608,0.633 -6.477,-2.595 -0.872,-3.232 1.143,-18.284 1.143,-18.284 0,0 2.503,-9.459 17.639,-1.039"
         id="path762" />
      <path
         fill="#261f27"
         d="m 256.387,63.812 c 0,0 -6.236,4.71 -12.219,0.698 0,0 3.792,-0.35 4.972,-2.268 0,0 -2.36,0.61 -5.14,-3.314 0,0 4.887,0.698 6.572,-0.785 1.686,-1.483 10.28,-3.838 15.42,-0.262 5.141,3.576 5.057,6.193 5.057,6.193 0,0 3.033,1.133 2.95,2.878 -0.085,1.744 -7.5,16.048 -7.5,16.048 l -1.601,-6.367 c 0,0 1.264,0.378 2.022,-2.587 0.758,-2.966 -2.528,-1.687 -2.865,-1.076 -0.337,0.61 -2.528,-4.187 -2.528,-4.187 l 0.337,-2.79 c 0,0 1.096,-3.577 -5.477,-2.18"
         id="path764" />
      <path
         fill="#ffffff"
         d="m 268.214,196.384 c -3.591,14.487 3.05,72.409 3.05,72.409 L 264.766,270 C 238.606,209.985 244.59,161 244.59,161 l 29.41,2.414 c 0,0 -0.075,-1.224 -0.106,-0.934 -0.338,3.008 -2.408,20.689 -5.68,33.904"
         id="path766" />
      <path
         fill="#6397d9"
         d="m 235.73,254.076 -7.553,5.859 c 0,0 -2.975,-0.359 -3.548,1.016 -0.572,1.375 -0.629,2.93 -0.629,2.93 L 231.896,264 245,258.799 242.94,253 Z m 29.82,17.264 c 0,0 -2.672,4.322 -5.365,7.852 -0.905,1.186 -3.117,1.701 -3.978,4.595 -0.74,2.49 0.74,4.213 0.74,4.213 0,0 4.965,-0.894 8.419,-3.957 3.453,-3.064 8.634,-8.937 8.634,-8.937 l -1.418,-5.106 -7.031,1.34 z"
         id="path768" />
      <path
         fill="#224a7d"
         d="m 66,199 c 0,3.866 -12.984,7 -29,7 -16.016,0 -29,-3.134 -29,-7 0,-3.866 12.984,-7 29,-7 16.016,0 29,3.134 29,7"
         id="path770" />
      <path
         fill="#6397d9"
         d="m 66,198 c 0,3.866 -12.984,7 -29,7 -16.016,0 -29,-3.134 -29,-7 0,-3.866 12.984,-7 29,-7 16.016,0 29,3.134 29,7"
         id="path772" />
      <path
         fill="#162f44"
         d="m 45,194 c 0,1.657 -5.373,3 -12,3 -6.627,0 -12,-1.343 -12,-3 0,-1.657 5.373,-3 12,-3 6.627,0 12,1.343 12,3 m -37,3 v 3.986 c 0,0 0.07,2.464 5,4.014 l -1.179,-4.318 c 0,0 -3.463,-1.495 -3.821,-3.682"
         id="path774" />
      <path
         fill="#8cc5f2"
         d="m 65.994,197 v 4.085 c 0,0 0.39,2.043 -4.994,3.915 l 1.652,-4.766 c 0,0 2.86,-1.277 3.342,-3.234"
         id="path776" />
      <path
         fill="#fc516b"
         d="m 47,184.038 -1.968,7.69 C 44.544,193.642 42.609,195 40.379,195 h -4.233 c -1.585,0 -3.025,-0.685 -3.9,-1.772 A 4.02,4.02 0 0 1 31.554,191.95 L 29.848,186.637 29,184 Z"
         id="path778" />
      <path
         fill="#9b293f"
         d="m 47,183 c 0,0.552 -4.03,1 -9,1 -4.97,0 -9,-0.448 -9,-1 0,-0.552 4.03,-1 9,-1 4.97,0 9,0.448 9,1"
         id="path780" />
      <path
         fill="#f995a9"
         d="m 34.594,193.657 c 0.354,0.137 0.688,0.253 1,0.343 l -2.11,-0.324 a 4.41,4.41 0 0 1 -0.657,-1.35 l -1.616,-5.608 C 31.13,186.448 31,186.018 31,186 c 0,0 4.215,1.242 8,0.818 -1.231,0.164 -4.31,0.412 -6.168,0.32 a 0.724,0.724 0 0 0 -0.764,0.815 c 0.234,1.657 0.905,5.074 2.526,5.704"
         id="path782" />
      <path
         fill="#51a595"
         d="m 39,180.901 -0.679,3.087 -0.494,0.012 c 0,0 -0.028,-3.099 -3.674,-5 -3.65,-1.9 -3.127,-9 -3.127,-9 l 0.003,0.009 c 0.088,0.183 1.488,3.1 2.549,3.29 1.094,0.202 1.773,1.95 1.773,1.95 0,0 0.522,0.75 1.147,0.6 0.626,-0.15 1.251,1.5 1.251,1.5 l 0.207,1.752 z"
         id="path784" />
      <path
         fill="#4ec9b4"
         d="m 34.007,186.987 c 0,0 -0.7,-23.436 11.6,-29.987 0,0 3.501,1.352 -0.6,6.967 -4.1,5.615 -0.799,9.67 -2.6,11.127 -1.8,1.455 -4.4,2.391 -4,4.263 0.4,1.872 -0.1,3.744 -0.9,3.952 -0.8,0.207 -2.6,1.312 -2.88,3.691 z"
         id="path786" />
      <path
         fill="#41877a"
         d="m 34,182.8 -0.04,1.188 -0.538,0.012 c 0,0 -0.03,-3.099 -3.994,-5 -3.968,-1.9 -3.4,-9 -3.4,-9 l 0.004,0.009 0.336,1.068 c 0,6.45 3.723,7.787 5.212,8.648 1.489,0.861 2.42,3.075 2.42,3.075"
         id="path788" />
      <path
         fill="#306299"
         d="m 253.815,94.105 c 0,0 10.552,0.172 11.494,-1.105 L 266,94.898 c 0,0 -8.36,4.557 -14,2.624 z"
         id="path790" />
      <path
         fill="#8cc5f2"
         d="M 239,107.916 251.588,122 c 0,0 16.822,-15.082 16.404,-19.81 -0.417,-4.727 -6.58,-14.515 -16.034,-5.523 C 242.76,105.415 239,107.916 239,107.916"
         id="path792" />
      <path
         fill="#f4f2f9"
         d="M 271.435,269.654 268.869,270 c 0,0 -12.026,-42.47 -8.07,-73.847 1.189,-9.434 5.344,-33.153 5.344,-33.153 l 7.857,0.737 c -0.318,3.023 -2.357,19.855 -5.426,33.137 -3.367,14.562 2.86,72.78 2.86,72.78"
         id="path794" />
      <path
         fill="#e6846f"
         d="m 257.747,92.558 c -1.488,0.324 -2.299,0.427 -2.747,0.442 0.698,-0.966 1.484,-2.182 1.832,-3.158 0.793,-2.241 0.799,-4.33 0.799,-4.33 0,0 2.971,-0.782 3.277,-0.413 0.304,0.368 0,6.77 -3.161,7.459"
         id="path796" />
      <path
         fill="#cec3e2"
         d="m 112,96 c 0,10.492 -8.048,19 -17.973,19 -4.156,0 -7.981,-1.491 -11.027,-3.996 V 80.996 C 86.046,78.49 89.87,77 94.027,77 103.952,77 112,85.508 112,96"
         id="path798" />
      <path
         fill="#c3b8d8"
         d="m 112,96.5 c 0,10.216 -7.493,18.5 -16.734,18.5 -3.87,0 -7.43,-1.452 -10.266,-3.89 V 81.89 C 87.835,79.453 91.397,78 95.266,78 104.507,78 112,86.284 112,96.5"
         id="path800" />
      <path
         fill="#44ad99"
         d="m 138,113.096 c 0,0 -1.985,-1.104 -2.298,-1.305 -0.314,-0.199 -4.39,0.902 -9.826,6.516 -5.433,5.614 -0.73,10.324 -3.028,13.33 -2.301,3.008 -0.107,9.323 1.044,13.635 1.15,4.31 0,9.722 0,9.722 l -0.06,0.006 -1.821,-0.006 c 0,0 -6.584,-28.868 4.075,-39.995 2.596,-2.706 5.97,-4.703 9.647,-5.999 z"
         id="path802" />
    </g>
  </g>
</svg>
