<?xml version="1.0" encoding="UTF-8" standalone="no"?>
<svg
   width="148"
   height="25"
   version="1.1"
   id="svg12"
   sodipodi:docname="logo-bookmark-dark.svg"
   inkscape:version="1.1.2 (0a00cf5339, 2022-02-04)"
   xmlns:inkscape="http://www.inkscape.org/namespaces/inkscape"
   xmlns:sodipodi="http://sodipodi.sourceforge.net/DTD/sodipodi-0.dtd"
   xmlns="http://www.w3.org/2000/svg"
   xmlns:svg="http://www.w3.org/2000/svg">
  <defs
     id="defs16" />
  <sodipodi:namedview
     id="namedview14"
     pagecolor="#ffffff"
     bordercolor="#666666"
     borderopacity="1.0"
     inkscape:pageshadow="2"
     inkscape:pageopacity="0.0"
     inkscape:pagecheckerboard="0"
     showgrid="false"
     inkscape:zoom="11.472973"
     inkscape:cx="74"
     inkscape:cy="12.071849"
     inkscape:window-width="1920"
     inkscape:window-height="1006"
     inkscape:window-x="0"
     inkscape:window-y="0"
     inkscape:window-maximized="1"
     inkscape:current-layer="svg12" />
  <g
     fill="none"
     fill-rule="evenodd"
     id="g10">
    <path
       d="M37 6.299h5.227c.746 0 1.434.155 2.062.466.629.311 1.123.735 1.484 1.27s.542 1.12.542 1.754c0 .672-.165 1.254-.495 1.746-.33.491-.762.868-1.297 1.129v.15c.697.248 1.25.643 1.661 1.185.41.541.616 1.191.616 1.95 0 .735-.196 1.385-.588 1.951a3.817 3.817 0 0 1-1.587 1.307c-.665.305-1.403.457-2.212.457H37V6.299zm5.04 5.45c.548 0 .986-.152 1.316-.457.33-.305.495-.688.495-1.148 0-.448-.159-.824-.476-1.13-.318-.304-.738-.457-1.26-.457H39.52v3.192h2.52zm.28 5.619c.61 0 1.086-.159 1.428-.476.342-.317.513-.731.513-1.241 0-.51-.174-.927-.522-1.251-.349-.324-.847-.485-1.494-.485H39.52v3.453h2.8zm12.927 2.595c-1.307 0-2.492-.308-3.556-.924a6.711 6.711 0 0 1-2.511-2.53c-.61-1.07-.915-2.246-.915-3.528 0-1.281.305-2.457.915-3.528a6.711 6.711 0 0 1 2.51-2.529C52.756 6.308 53.94 6 55.248 6c1.306 0 2.492.308 3.556.924a6.711 6.711 0 0 1 2.51 2.53c.61 1.07.915 2.246.915 3.527 0 1.282-.305 2.458-.915 3.528a6.711 6.711 0 0 1-2.51 2.53c-1.064.616-2.25.924-3.556.924zm0-2.39a4.52 4.52 0 0 0 2.258-.578 4.177 4.177 0 0 0 1.615-1.624c.392-.697.588-1.494.588-2.39 0-.896-.196-1.692-.588-2.389a4.177 4.177 0 0 0-1.615-1.624 4.52 4.52 0 0 0-2.258-.579 4.47 4.47 0 0 0-2.25.579 4.195 4.195 0 0 0-1.605 1.624c-.392.697-.588 1.493-.588 2.39 0 .895.196 1.692.588 2.389a4.195 4.195 0 0 0 1.605 1.624 4.47 4.47 0 0 0 2.25.578zm15.353 2.39c-1.307 0-2.492-.308-3.556-.924a6.711 6.711 0 0 1-2.51-2.53c-.61-1.07-.915-2.246-.915-3.528 0-1.281.305-2.457.914-3.528a6.711 6.711 0 0 1 2.511-2.529C68.108 6.308 69.294 6 70.6 6c1.307 0 2.492.308 3.556.924a6.711 6.711 0 0 1 2.51 2.53c.61 1.07.915 2.246.915 3.527 0 1.282-.305 2.458-.914 3.528a6.711 6.711 0 0 1-2.511 2.53c-1.064.616-2.25.924-3.556.924zm0-2.39a4.52 4.52 0 0 0 2.259-.578 4.177 4.177 0 0 0 1.614-1.624c.392-.697.588-1.494.588-2.39 0-.896-.196-1.692-.588-2.389a4.177 4.177 0 0 0-1.614-1.624 4.52 4.52 0 0 0-2.259-.579 4.47 4.47 0 0 0-2.25.579 4.195 4.195 0 0 0-1.605 1.624c-.392.697-.588 1.493-.588 2.39 0 .895.196 1.692.588 2.389a4.195 4.195 0 0 0 1.606 1.624 4.47 4.47 0 0 0 2.249.578zM79.83 6.3h2.52v5.73h.15l4.89-5.73h3.043v.149L85.6 11.973l5.338 7.542v.149h-3.08l-3.994-5.693-1.512 1.773v3.92h-2.52V6.299zM93.779 6h3.248l3.546 9.39h.15L104.268 6h3.267v13.365h-2.501v-6.589l.15-2.221h-.15l-3.398 8.81h-1.96l-3.416-8.81h-.149l.15 2.221v6.59h-2.483V6zm20.8 0h2.894l5.021 13.365h-2.781l-1.12-3.192h-5.115l-1.12 3.192h-2.781L114.579 6zm3.193 7.859l-1.176-3.36-.486-1.606h-.149l-.485 1.606-1.195 3.36h3.49zM124.553 6h4.872c.871 0 1.646.18 2.324.541.678.361 1.204.862 1.577 1.503.374.64.56 1.366.56 2.175 0 .858-.27 1.62-.812 2.286a4.617 4.617 0 0 1-2.044 1.447l-.018.13 3.584 5.134v.15h-2.894l-3.453-5.022h-1.176v5.021h-2.52V6zm4.853 6.03c.573 0 1.04-.175 1.4-.523.361-.349.542-.79.542-1.326 0-.51-.172-.945-.514-1.306-.342-.361-.806-.542-1.39-.542h-2.371v3.696h2.333zm7.23-6.03h2.52v5.73h.15l4.89-5.73h3.043v.15l-4.835 5.525 5.34 7.541v.15h-3.08l-3.996-5.694-1.512 1.773v3.92h-2.52V6z"
       fill="#242A45"
       fill-rule="nonzero"
       id="path2" />
    <g
       id="g8">
      <circle
         fill="#5267DF"
         cx="12.5"
         cy="12.5"
         r="12.5"
         id="circle4" />
      <path
         d="M9 9v10l3.54-3.44L16.078 19V9a2 2 0 0 0-2-2H11a2 2 0 0 0-2 2z"
         fill="#FFF"
         id="path6" />
    </g>
  </g>
  <path
     style="fill:#ffffff;stroke:none;stroke-width:0.0871614"
     d="M 37,12.987044 V 6.3627797 h 2.945174 c 2.329423,0 3.049535,0.027183 3.444338,0.1300159 1.126148,0.2933242 2.005376,0.9589101 2.506724,1.8976191 0.248784,0.4658147 0.295298,0.6496684 0.324966,1.284497 0.02804,0.5999163 -2.62e-4,0.8333933 -0.148756,1.2271753 -0.213387,0.565873 -0.648567,1.106204 -1.192145,1.480196 -0.211433,0.145469 -0.382816,0.311634 -0.380851,0.369254 0.002,0.05762 0.207572,0.200642 0.456905,0.317824 0.596153,0.280185 1.23689,0.931942 1.526933,1.553197 0.201319,0.431211 0.233529,0.613773 0.234305,1.327972 7.84e-4,0.746787 -0.02569,0.88415 -0.270118,1.399964 -0.499253,1.053583 -1.410852,1.758708 -2.699916,2.088395 -0.608328,0.155584 -0.970636,0.172418 -3.710854,0.172418 H 37 Z m 6.367995,4.205784 c 0.499176,-0.246001 0.763999,-0.600048 0.883143,-1.18069 0.122437,-0.596697 -0.01367,-1.094328 -0.423352,-1.547793 -0.467186,-0.517118 -0.875255,-0.605688 -2.790602,-0.605688 h -1.596666 v 1.794555 1.794556 l 1.765018,-0.02954 c 1.620043,-0.02711 1.797663,-0.04563 2.162459,-0.225402 z M 43.180214,11.477745 C 43.829436,11.047717 44.073643,10.123275 43.7207,9.4317456 43.323098,8.652714 42.985578,8.5418139 41.012222,8.5418139 h -1.571704 v 1.6176651 1.617665 l 1.684562,-0.02697 c 1.681428,-0.02692 1.68525,-0.02743 2.055134,-0.272429 z"
     id="path55" />
  <path
     style="fill:#ffffff;stroke-width:0.0871614"
     d="m 54.693757,19.896448 c -1.436876,-0.09547 -3.069382,-0.790256 -4.10098,-1.745358 -1.500029,-1.388797 -2.261799,-3.12804 -2.261799,-5.164046 0,-2.915631 1.682604,-5.4119541 4.362416,-6.472111 0.817865,-0.3235548 1.489752,-0.4425497 2.523332,-0.4468967 3.214003,-0.013517 5.841255,1.9627248 6.730236,5.0625417 0.278277,0.97033 0.275526,2.731846 -0.0058,3.725502 -0.911749,3.22014 -3.853258,5.265882 -7.247391,5.040368 z m 1.688135,-2.421257 c 1.677761,-0.437002 2.890855,-1.688474 3.241856,-3.344416 0.659622,-3.11195 -1.348462,-5.7632838 -4.365033,-5.7632838 -1.968068,0 -3.510732,1.0494417 -4.194797,2.8536318 -0.298171,0.786413 -0.372404,2.071521 -0.169407,2.932725 0.392606,1.665612 1.627904,2.942947 3.219438,3.328995 0.62607,0.151863 1.669036,0.148343 2.267943,-0.0077 z"
     id="path131" />
  <path
     style="fill:#ffffff;stroke-width:0.0871614"
     d="M 69.846879,19.865842 C 68.192669,19.722258 66.593274,18.923245 65.45997,17.674266 62.396386,14.29799 63.402447,8.7867419 67.442894,6.8117128 68.637771,6.22764 69.299472,6.0728064 70.600707,6.0728064 c 1.296173,0 1.951204,0.1529458 3.171793,0.7405952 0.781539,0.3762702 1.009604,0.5394471 1.664821,1.1911567 1.501949,1.4939077 2.192926,3.2990737 2.066926,5.3998097 -0.06255,1.042848 -0.226086,1.679744 -0.671526,2.615254 -1.272267,2.672008 -3.892628,4.114709 -6.985842,3.84622 z m 1.773684,-2.355566 c 1.02527,-0.213807 2.099542,-0.927439 2.691659,-1.788053 0.143803,-0.209009 0.365885,-0.645176 0.493515,-0.969259 0.211342,-0.536643 0.231851,-0.694279 0.229762,-1.76592 -0.0019,-0.989733 -0.0325,-1.258648 -0.192423,-1.692611 -0.675267,-1.8323986 -2.26172,-2.9269418 -4.242369,-2.9269418 -1.713632,0 -3.16709,0.8406024 -3.915264,2.2643798 -0.995039,1.893562 -0.675226,4.277863 0.766425,5.713927 1.049249,1.045183 2.62714,1.485949 4.168695,1.164478 z"
     id="path170" />
  <path
     style="fill:#ffffff;stroke-width:0.0871614"
     d="M 79.883392,12.987044 V 6.3627797 h 1.220259 1.220259 v 2.8327444 c 0,2.4052479 0.01891,2.8327449 0.125304,2.8327449 0.06892,0 1.211522,-1.274735 2.539122,-2.8327449 l 2.413817,-2.8327444 h 1.524566 1.524565 l -0.560583,0.6319199 c -2.789392,3.1443514 -4.336258,4.9724174 -4.282742,5.0612914 0.03412,0.05666 1.231073,1.755493 2.659899,3.775182 1.428827,2.019689 2.597866,3.696456 2.597866,3.726148 0,0.02969 -0.67659,0.05194 -1.503533,0.04944 l -1.503534,-0.0045 -1.96113,-2.823655 c -1.078622,-1.553011 -1.986463,-2.8257 -2.017424,-2.8282 -0.03096,-0.0025 -0.393771,0.385188 -0.806243,0.861528 l -0.74995,0.866073 v 1.966672 1.966671 h -1.220259 -1.220259 z"
     id="path209" />
  <path
     style="fill:#ffffff;stroke-width:0.0871614"
     d="M 93.829211,12.680013 V 6.0102018 l 1.583378,0.023757 1.583377,0.023757 1.761011,4.6631332 c 1.05945,2.805409 1.809213,4.672743 1.881993,4.687254 0.0858,0.0171 0.63839,-1.346804 1.89825,-4.684923 l 1.77726,-4.7090449 h 1.59953 1.59954 v 6.6678449 6.667844 h -1.23024 -1.23023 L 105.1,15.187868 c 0.0258,-2.289075 0.0748,-4.273717 0.10895,-4.410316 0.0518,-0.207351 0.0369,-0.243331 -0.0902,-0.217903 -0.11309,0.02263 -0.58414,1.15092 -1.83219,4.388525 l -1.67997,4.358069 -0.94701,0.02296 -0.946997,0.02296 -1.699647,-4.402665 c -0.934805,-2.421465 -1.738869,-4.402738 -1.786808,-4.402829 -0.05736,-1.09e-4 -0.07675,1.504799 -0.05672,4.401499 l 0.03044,4.401663 H 95.01452 93.829193 Z"
     id="path248" />
  <path
     style="fill:#ffffff;stroke-width:0.0871614"
     d="m 109.69082,19.286723 c -9.7e-4,-0.0372 1.10707,-3.03832 2.46231,-6.669149 l 2.46407,-6.6015068 1.40414,-9.665e-4 1.40414,-9.664e-4 2.46387,6.5588927 c 1.35513,3.607391 2.48267,6.607921 2.50566,6.667845 0.0323,0.08424 -0.26174,0.108947 -1.29676,0.108931 l -1.33853,-2e-5 -0.56655,-1.612445 -0.56655,-1.612445 -2.58584,-2e-5 -2.58584,-2e-5 -0.13829,0.370436 c -0.0761,0.203739 -0.32988,0.919552 -0.56404,1.590695 l -0.42574,1.220259 -1.31715,0.02406 c -0.72443,0.01323 -1.31793,-0.0064 -1.3189,-0.04358 z m 8.10777,-5.461105 c 0,-0.01817 -0.25868,-0.773206 -0.57484,-1.677856 -0.31616,-0.90465 -0.6813,-1.997733 -0.81143,-2.4290751 -0.14457,-0.4792208 -0.28629,-0.7938286 -0.36437,-0.8088649 -0.0937,-0.018038 -0.23841,0.3193063 -0.54222,1.263645 -0.22794,0.708539 -0.60802,1.827564 -0.84463,2.486721 l -0.43019,1.198469 h 1.78384 c 0.98111,0 1.78384,-0.01487 1.78384,-0.03304 z"
     id="path287" />
  <path
     style="fill:#ffffff;stroke-width:0.0871614"
     d="M 124.59717,12.681979 V 6.0141343 l 2.54947,0.00304 c 2.89094,0.00345 3.56627,0.082992 4.46627,0.5260598 1.72821,0.8507971 2.61391,2.8948183 2.04811,4.7266569 -0.31529,1.020811 -1.09637,1.871868 -2.25081,2.452469 -0.33039,0.166164 -0.45036,0.271782 -0.4146,0.364983 0.0277,0.07213 0.81824,1.230969 1.7568,2.575185 0.93855,1.344218 1.72746,2.498765 1.75313,2.565662 0.0387,0.100955 -0.19112,0.121632 -1.35213,0.121632 h -1.39881 l -1.72653,-2.524033 -1.72654,-2.524034 -0.63192,-0.0036 -0.63192,-0.0036 v 2.52768 2.527679 h -1.22026 -1.22026 z m 5.99725,-0.946839 c 0.94502,-0.655512 1.06719,-2.061121 0.25005,-2.8770566 -0.50033,-0.4995931 -0.83098,-0.5777536 -2.4441,-0.5777536 h -1.36268 v 1.8793592 1.87936 l 1.59848,-0.02718 c 1.59782,-0.02717 1.59863,-0.02728 1.95825,-0.276728 z"
     id="path326" />
  <path
     style="fill:#ffffff;stroke-width:0.0871614"
     d="M 136.7126,12.681979 V 6.0141343 h 1.22026 1.22026 v 2.8763251 c 0,2.2454876 0.0239,2.8752826 0.10895,2.8715716 0.0599,-0.0026 1.20719,-1.296892 2.54947,-2.8761716 l 2.44052,-2.8714181 1.45995,-1.534e-4 c 0.80298,-8.45e-5 1.45996,0.03025 1.45996,0.067409 0,0.03716 -1.07862,1.3011026 -2.39694,2.8087624 -1.31832,1.5076597 -2.39694,2.7641277 -2.39694,2.7921507 0,0.02802 1.1954,1.735193 2.65645,3.793711 1.46104,2.058518 2.65733,3.772177 2.65842,3.808131 0.001,0.03595 -0.67461,0.06333 -1.50156,0.06084 l -1.50353,-0.0045 -2.00191,-2.87218 c -1.89151,-2.713799 -2.01001,-2.863749 -2.14885,-2.719266 -0.0808,0.0841 -0.42527,0.484637 -0.76546,0.890074 l -0.61853,0.737159 v 1.986634 1.986634 h -1.22026 -1.22026 z"
     id="path365" />
</svg>
